# xmcd
#
# Track frame offsets: 
#        182
#        19192
#        39755
#        60037
#        80447
#        96605
#        115962
#        134260
#        157212
#        174915
#
# Disc length: 2582 seconds
#
# Revision: 2
# Processed by: cddbd v1.5.2PL0 Copyright (c) Steve Scherf et al.
# Submitted via: ExactAudioCopy v1.0b3
#
DISCID=770a140a
DTITLE=Little Milton - Back To Back
DYEAR=1988
DGENRE=Blues
TTITLE0=I Was Tryin' Not to Break Down
TTITLE1=Caught In the Act (Of Gettin' It On)
TTITLE2=You Can't Trust Your Neighbor
TTITLE3=Penitentiary Blues
TTITLE4=(I Had) Too Much Heaven Last Night
TTITLE5=I Don't Believe In Ghosts
TTITLE6=It's Hard To Explain
TTITLE7=The End Of the Rainbow
TTITLE8=Fast Young Lady
TTITLE9=The WInd Beneath My Wings
EXTD=Malaco  MAL 7448 CD\n\n"Little" Milton Campbell: guitars, vocals\n
EXTD=Ray Griffin: bass\nJames Robertson: drums\nAdditional guitars: Mi
EXTD=chael Toles, Dino Zimmerman, Jimmy Johnson\nStrings, horns\n\nEnt
EXTD=ry: Mike Lempriere  mikel@speakeasy.org  13-Mar-1997\n
EXTT0=
EXTT1=
EXTT2=
EXTT3=
EXTT4=
EXTT5=
EXTT6=
EXTT7=
EXTT8=
EXTT9=
PLAYORDER=
